<?xml version="1.0" encoding="utf8" ?>
<svg version="1.1" xmlns="http://www.w3.org/2000/svg" xmlns:xlink="http://www.w3.org/1999/xlink" x="0px" y="0px" viewBox="0 0 107.8 107.8" xml:space="preserve">
  <g>
    <path d="M53.903,107.8C24.183,107.8,0.002,83.62,0,53.899C0,24.179,24.179,0,53.899,0s53.9,24.179,53.9,53.899
    S83.622,107.8,53.903,107.8z M53.899,5C26.937,5,5,26.937,5,53.899c0.002,26.964,21.939,48.9,48.901,48.9h0.002
    c26.962,0,48.897-21.937,48.897-48.9C102.8,26.937,80.863,5,53.899,5z" />
    <g>
      <path d="M53.901,78.621L35.383,62.664c-1.046-0.901-1.163-2.479-0.262-3.525c0.902-1.046,2.48-1.162,3.525-0.262l15.255,13.145
      l15.253-13.145c1.045-0.9,2.625-0.784,3.525,0.262c0.901,1.046,0.784,2.624-0.262,3.525L53.901,78.621z" />
      <path d="M53.901,77.821c-1.381,0-2.5-1.119-2.5-2.5V32.479c0-1.381,1.119-2.5,2.5-2.5c1.381,0,2.5,1.119,2.5,2.5v42.842
      C56.401,76.702,55.282,77.821,53.901,77.821z" />
    </g>
  </g>
</svg>
